<svg xmlns="http://www.w3.org/2000/svg" xmlns:xlink="http://www.w3.org/1999/xlink" width="858.96" height="546.089" viewBox="0 0 858.96 546.089">
  <defs>
    <clipPath id="clip-path">
      <rect id="Rectangle_122" data-name="Rectangle 122" width="55.372" height="43.846" fill="#f65c47"/>
    </clipPath>
  </defs>
  <g id="Group_789" data-name="Group 789" transform="translate(-274.815 -135.531)">
    <g id="Group_712" data-name="Group 712" transform="matrix(-0.309, 0.951, -0.951, -0.309, 1133.775, 404.355)">
      <g id="Group_597" data-name="Group 597" transform="translate(0 0)" clip-path="url(#clip-path)">
        <path id="Path_4095" data-name="Path 4095" d="M3.593.321a78.269,78.269,0,0,1,19,16.026,74.272,74.272,0,0,1,7.4,10.131c2.179,3.643,3.655,8.517.924,12.314a7.027,7.027,0,0,1-5.635,3.035,8.113,8.113,0,0,1-5.77-2.369c-3.037-3.045-3.407-7.975-1.822-11.81a15.267,15.267,0,0,1,8.208-8.128A16.937,16.937,0,0,1,38,19.265c9.518,3.3,14.71,12.355,17.292,21.568a2.4,2.4,0,1,1-4.619,1.274,36.561,36.561,0,0,0-4.053-9.729,20.643,20.643,0,0,0-6.96-7.1A14.8,14.8,0,0,0,35,23.384c-.415-.1-.833-.181-1.254-.243.344.05-.075-.008-.122-.011-.254-.023-.508-.047-.763-.06q-.638-.034-1.277-.014c-.171.006-.342.015-.512.026s-.342.026-.512.044q-.431.049-.162.018c.349-.056-.382.075-.352.069-.149.029-.3.061-.444.1q-.553.13-1.093.308c-.217.072-.429.152-.643.231-.067.024-.418.183-.059.022-.416.186-.823.392-1.219.619a10.261,10.261,0,0,0-3.222,2.745c-.27.326.3-.446-.1.137-.084.123-.171.243-.254.368q-.308.464-.57.956a6.808,6.808,0,0,0-.71,1.912c-.044.181-.082.363-.116.547-.022.118-.068.6-.027.141a10.722,10.722,0,0,0-.049,1.232c0,.169.017.336.026.5.038.736-.114-.354.05.364a9.512,9.512,0,0,0,.374,1.328,3.73,3.73,0,0,0,2.363,2.2c-.026-.007.692.162.344.095s.363.021.351.021c.15,0,.3-.005.445-.009.625-.016-.351.151.239-.054.14-.048.285-.079.423-.132-.46.179.178-.128.225-.153.376-.2.13-.093.036-.011.063-.056.553-.553.406-.378-.212.251.2-.3.189-.283.1-.155.179-.314.263-.476.182-.355-.145.514.054-.136.043-.141.091-.28.13-.423.058-.215.1-.432.143-.651-.077.433-.008.068-.005-.027a7.814,7.814,0,0,0-.026-1.328c.046.321-.059-.231-.074-.3q-.074-.331-.169-.654c-.064-.217-.136-.43-.213-.642-.019-.053-.227-.57-.115-.31a19.972,19.972,0,0,0-1.366-2.528c-.949-1.547-1.97-3.052-3.036-4.52-1.026-1.412-1.935-2.569-3.139-3.987A73.361,73.361,0,0,0,1.176,4.458,2.438,2.438,0,0,1,.316,1.18,2.427,2.427,0,0,1,3.593.321" transform="translate(0 0)" fill="#f65c47"/>
      </g>
    </g>
    <path id="Icon_awesome-heart" data-name="Icon awesome-heart" d="M36.334,2.408A10.747,10.747,0,0,0,21.669,3.476l-1.548,1.6-1.548-1.6A10.747,10.747,0,0,0,3.907,2.408a11.285,11.285,0,0,0-.778,16.339l15.208,15.7a2.464,2.464,0,0,0,3.56,0L37.1,18.747a11.278,11.278,0,0,0-.77-16.339Z" transform="translate(877.373 155.752) rotate(16)" fill="#fff"/>
    <path id="Icon_awesome-heart-2" data-name="Icon awesome-heart" d="M29.461,1.952a8.714,8.714,0,0,0-11.891.867L16.314,4.112,15.059,2.819A8.714,8.714,0,0,0,3.168,1.952,9.15,9.15,0,0,0,2.537,15.2L14.868,27.932a2,2,0,0,0,2.887,0L30.085,15.2a9.145,9.145,0,0,0-.624-13.248Z" transform="translate(274.815 374.625) rotate(-18)" fill="#f65c47"/>
    <path id="Icon_ionic-md-star" data-name="Icon ionic-md-star" d="M15.836,22.9l7.44,4.489-1.968-8.467,6.567-5.693-8.658-.744L15.836,4.5l-3.382,7.982L3.8,13.226l6.567,5.693L8.4,27.386Z" transform="translate(598.595 131.031)" fill="#fff"/>
    <path id="Icon_ionic-md-star-2" data-name="Icon ionic-md-star" d="M21.537,31.61,32.5,38.224,29.6,25.747l9.677-8.389-12.758-1.1L21.537,4.5,16.554,16.262,3.8,17.358l9.677,8.389-2.9,12.477Z" transform="translate(673.203 643.396)" fill="#fff"/>
    <path id="Icon_ionic-md-star-3" data-name="Icon ionic-md-star" d="M23.074,33.958l11.913,7.187L31.835,27.588l10.516-9.116-13.863-1.19L23.074,4.5,17.659,17.281,3.8,18.472l10.516,9.116L11.16,41.145Z" transform="translate(540.62 173.721)" fill="#f65c47"/>
  </g>
</svg>
