<svg xmlns="http://www.w3.org/2000/svg" xmlns:xlink="http://www.w3.org/1999/xlink" width="203.482" height="153.623" viewBox="0 0 203.482 153.623">
  <defs>
    <clipPath id="clip-path">
      <rect id="Rectangle_122" data-name="Rectangle 122" width="27.493" height="21.77" fill="#f65c47"/>
    </clipPath>
  </defs>
  <g id="Group_765" data-name="Group 765" transform="translate(-259 -1369)">
    <ellipse id="Ellipse_18" data-name="Ellipse 18" cx="77.261" cy="76.812" rx="77.261" ry="76.812" transform="translate(290.443 1369)" fill="#fff3c6"/>
    <g id="Group_714" data-name="Group 714" transform="translate(259 1377.716)">
      <text id="V" transform="matrix(0.998, -0.07, 0.07, 0.998, 55.222, 66.673)" fill="#f65c47" font-size="44" font-family="SegoeUI, Segoe UI" letter-spacing="0.003em"><tspan x="0" y="0">V</tspan></text>
      <text id="E" transform="translate(106.362 69.526)" fill="#f65c47" font-size="44" font-family="SegoeUI, Segoe UI" letter-spacing="0.003em"><tspan x="0" y="0">E</tspan></text>
      <text id="R" transform="matrix(0.996, 0.087, -0.087, 0.996, 129.767, 57.861)" fill="#f65c47" font-size="44" font-family="SegoeUI, Segoe UI" letter-spacing="0.003em"><tspan x="0" y="0">R</tspan></text>
      <text id="W" transform="translate(39.674 109.247) rotate(-3)" fill="#f65c47" font-size="45" font-family="SegoeUI, Segoe UI" letter-spacing="0.003em"><tspan x="0" y="0">W</tspan></text>
      <text id="E-2" data-name="E" transform="translate(87.067 113.989) rotate(-3)" fill="#f65c47" font-size="44" font-family="SegoeUI, Segoe UI" letter-spacing="0.003em"><tspan x="0" y="0">E</tspan></text>
      <text id="R-2" data-name="R" transform="matrix(0.998, 0.07, -0.07, 0.998, 113.595, 108.445)" fill="#f65c47" font-size="44" font-family="SegoeUI, Segoe UI" letter-spacing="0.003em"><tspan x="0" y="0">R</tspan></text>
      <text id="K" transform="translate(144.779 100.001)" fill="#f65c47" font-size="44" font-family="SegoeUI, Segoe UI" letter-spacing="0.003em"><tspan x="0" y="0">K</tspan></text>
      <path id="Path_4106" data-name="Path 4106" d="M15.93-46.983q0,.491-4.5.491t-4.5-.429V-77.033q0-.429,4.5-.429t4.5.368Z" transform="translate(84.737 120.978)" fill="#f65c47"/>
      <path id="Path_4172" data-name="Path 4172" d="M5.388.623A.713.713,0,0,1,6.8.623l5.382,42.028a.713.713,0,0,1-.708.8H.713a.713.713,0,0,1-.708-.8Z" transform="translate(56.11 56.163) rotate(118)" fill="#f65c47"/>
      <path id="Path_4174" data-name="Path 4174" d="M5.785.6a.713.713,0,0,1,1.41,0l5.777,37a.713.713,0,0,1-.7.823H.713a.713.713,0,0,1-.7-.823Z" transform="translate(159.196 115.983) rotate(-59)" fill="#f65c47"/>
      <path id="Path_4171" data-name="Path 4171" d="M6.283.571a.713.713,0,0,1,1.4,0L13.949,31.3a.713.713,0,0,1-.7.856H.714a.713.713,0,0,1-.7-.856Z" transform="translate(31.412 101.252) rotate(52)" fill="#f65c47"/>
      <path id="Icon_awesome-heart" data-name="Icon awesome-heart" d="M10.754.713a3.181,3.181,0,0,0-4.34.316L5.955,1.5,5.5,1.029A3.181,3.181,0,0,0,1.156.713a3.34,3.34,0,0,0-.23,4.836l4.5,4.647a.729.729,0,0,0,1.054,0l4.5-4.647A3.338,3.338,0,0,0,10.754.713Z" transform="translate(163.913 25.031) rotate(16)" fill="#f65c47"/>
      <ellipse id="Ellipse_5" data-name="Ellipse 5" cx="3.929" cy="3.929" rx="3.929" ry="3.929" transform="matrix(0.966, 0.259, -0.259, 0.966, 181.92, 98.21)" fill="#f65c47"/>
      <path id="Path_4108" data-name="Path 4108" d="M5.556,32.307a1.2,1.2,0,0,1-1.15-.864L.048,16.49a1.2,1.2,0,0,1,1.864-1.3l10.034,7.434-4.01-21.2A1.2,1.2,0,0,1,10.291.976L14.87,25.188a1.2,1.2,0,0,1-1.891,1.186L3.345,19.236,6.707,30.773a1.2,1.2,0,0,1-1.151,1.534Z" transform="translate(6.293 99.803) rotate(-115)" fill="#f65c47"/>
      <g id="Group_604" data-name="Group 604" transform="matrix(-0.309, 0.951, -0.951, -0.309, 203.482, 61.74)">
        <g id="Group_597" data-name="Group 597" transform="translate(0 0)" clip-path="url(#clip-path)">
          <path id="Path_4095" data-name="Path 4095" d="M1.784.16a38.862,38.862,0,0,1,9.432,7.957,36.877,36.877,0,0,1,3.672,5.03c1.082,1.809,1.815,4.229.459,6.114a3.489,3.489,0,0,1-2.8,1.507,4.028,4.028,0,0,1-2.865-1.176,5.477,5.477,0,0,1-.9-5.864,7.58,7.58,0,0,1,4.075-4.036,8.409,8.409,0,0,1,6.013-.127c4.726,1.636,7.3,6.135,8.586,10.709a1.19,1.19,0,1,1-2.293.632,18.153,18.153,0,0,0-2.012-4.83,10.249,10.249,0,0,0-3.456-3.525,7.346,7.346,0,0,0-2.312-.941c-.206-.048-.414-.09-.623-.121.171.025-.037,0-.061-.006-.126-.011-.252-.023-.379-.03q-.317-.017-.634-.007c-.085,0-.17.007-.254.013s-.17.013-.254.022l-.081.009c.173-.028-.19.037-.175.034-.074.015-.147.03-.22.048q-.274.065-.543.153c-.108.036-.213.075-.319.114-.033.012-.207.091-.029.011-.206.093-.409.195-.605.307a5.1,5.1,0,0,0-1.6,1.363c-.134.162.148-.222-.051.068-.042.061-.085.121-.126.183q-.153.23-.283.475a3.38,3.38,0,0,0-.353.949c-.022.09-.041.18-.058.271-.011.059-.034.3-.014.07a5.324,5.324,0,0,0-.024.612c0,.084.009.167.013.251.019.366-.056-.176.025.181a4.723,4.723,0,0,0,.186.659,1.852,1.852,0,0,0,1.173,1.092c-.013,0,.343.08.171.047s.18.01.174.01c.075,0,.147,0,.221,0,.31-.008-.174.075.119-.027.069-.024.141-.039.21-.066-.228.089.088-.063.112-.076.186-.1.064-.046.018-.006.031-.028.275-.275.2-.188-.105.125.1-.147.094-.14.048-.077.089-.156.13-.236.09-.176-.072.255.027-.068.022-.07.045-.139.065-.21.029-.107.052-.214.071-.323-.038.215,0,.034,0-.013a3.879,3.879,0,0,0-.013-.659c.023.16-.029-.114-.037-.148q-.037-.164-.084-.325c-.032-.108-.068-.213-.106-.319-.01-.026-.113-.283-.057-.154a9.916,9.916,0,0,0-.678-1.255c-.471-.768-.978-1.515-1.508-2.244-.509-.7-.961-1.275-1.559-1.98A36.425,36.425,0,0,0,.584,2.213,1.211,1.211,0,0,1,.157.586,1.2,1.2,0,0,1,1.784.16" transform="translate(0 0)" fill="#f65c47"/>
        </g>
      </g>
      <path id="Path_4173" data-name="Path 4173" d="M5.25.621a.713.713,0,0,1,1.415,0l5.244,40.4a.713.713,0,0,1-.707.805H.713a.713.713,0,0,1-.707-.805Z" transform="matrix(-0.545, -0.839, 0.839, -0.545, 167.524, 60.336)" fill="#f65c47"/>
      <path id="Icon_ionic-md-star" data-name="Icon ionic-md-star" d="M8.607,11.851l2.973,1.794-.786-3.383,2.624-2.275-3.459-.3L8.607,4.5,7.256,7.69l-3.459.3,2.624,2.275-.787,3.383Z" transform="translate(90.394 23.248)" fill="#f65c47"/>
      <path id="Icon_ionic-md-star-2" data-name="Icon ionic-md-star" d="M10.885,15.332l4.38,2.643L14.107,12.99l3.867-3.352-5.1-.438L10.885,4.5,8.894,9.2l-5.1.438L7.664,12.99,6.5,17.975Z" transform="translate(100.015 7.696)" fill="#f65c47"/>
      <path id="Icon_ionic-md-star-3" data-name="Icon ionic-md-star" d="M14.429,20.748,21,24.712l-1.738-7.478,5.8-5.028-7.646-.657L14.429,4.5l-2.987,7.05L3.8,12.206l5.8,5.028L7.858,24.712Z" transform="translate(77.125 -4.5)" fill="#f65c47"/>
    </g>
  </g>
</svg>
