<svg xmlns="http://www.w3.org/2000/svg" width="27.895" height="237.956" viewBox="0 0 27.895 237.956">
  <g id="Group_716" data-name="Group 716" transform="translate(-296.899 -976.079)">
    <path id="Path_4177" data-name="Path 4177" d="M13.309.371a.736.736,0,0,1,1.278,0L27.8,23.492a.736.736,0,0,1-.639,1.1H.737a.736.736,0,0,1-.639-1.1Z" transform="translate(324.795 1000.672) rotate(180)" fill="#f65c47"/>
    <path id="Path_4178" data-name="Path 4178" d="M13.309.371a.736.736,0,0,1,1.278,0L27.8,23.492a.736.736,0,0,1-.639,1.1H.737a.736.736,0,0,1-.639-1.1Z" transform="translate(324.795 1054.013) rotate(180)" fill="#f65c47"/>
    <path id="Path_4179" data-name="Path 4179" d="M13.309.371a.736.736,0,0,1,1.278,0L27.8,23.492a.736.736,0,0,1-.639,1.1H.737a.736.736,0,0,1-.639-1.1Z" transform="translate(324.795 1107.354) rotate(180)" fill="#f65c47"/>
    <path id="Path_4180" data-name="Path 4180" d="M13.309.371a.736.736,0,0,1,1.278,0L27.8,23.492a.736.736,0,0,1-.639,1.1H.737a.736.736,0,0,1-.639-1.1Z" transform="translate(324.795 1160.693) rotate(180)" fill="#f65c47"/>
    <path id="Path_4181" data-name="Path 4181" d="M13.309.371a.736.736,0,0,1,1.278,0L27.8,23.492a.736.736,0,0,1-.639,1.1H.737a.736.736,0,0,1-.639-1.1Z" transform="translate(324.795 1214.035) rotate(180)" fill="#f65c47"/>
  </g>
</svg>
